<mxfile host="app.diagrams.net" agent="Mozilla/5.0 (Macintosh; Intel Mac OS X 10_15_7) AppleWebKit/537.36 (KHTML, like Gecko) Chrome/138.0.0.0 Safari/537.36" version="28.0.7">
  <diagram name="第 1 页" id="YPNfAPk9l44vq6hyU_0g">
    <mxGraphModel dx="2066" dy="1184" grid="1" gridSize="10" guides="1" tooltips="1" connect="1" arrows="1" fold="1" page="1" pageScale="1" pageWidth="827" pageHeight="1169" math="0" shadow="0">
      <root>
        <mxCell id="0" />
        <mxCell id="1" parent="0" />
        <mxCell id="-gD9WyJkI7M3bX-YKi-D-1" value="" style="rounded=1;whiteSpace=wrap;html=1;dashed=1;" vertex="1" parent="1">
          <mxGeometry x="194" y="120" width="440" height="140" as="geometry" />
        </mxCell>
        <mxCell id="-gD9WyJkI7M3bX-YKi-D-3" value="&lt;span style=&quot;color: rgb(51, 51, 51); font-family: &amp;quot;Microsoft YaHei&amp;quot;, &amp;quot;Segoe UI&amp;quot;, Roboto, Oxygen, Ubuntu, Cantarell, &amp;quot;Fira Sans&amp;quot;, &amp;quot;Droid Sans&amp;quot;, &amp;quot;Helvetica Neue&amp;quot;, sans-serif; font-size: 17.6px; font-weight: 700; text-align: start; background-color: rgb(249, 249, 249);&quot;&gt;用户层 (Presentation Layer)&lt;/span&gt;" style="text;html=1;align=center;verticalAlign=middle;whiteSpace=wrap;rounded=0;" vertex="1" parent="1">
          <mxGeometry x="194" y="120" width="240" height="50" as="geometry" />
        </mxCell>
        <mxCell id="-gD9WyJkI7M3bX-YKi-D-22" value="" style="edgeStyle=orthogonalEdgeStyle;rounded=0;orthogonalLoop=1;jettySize=auto;html=1;" edge="1" parent="1" source="-gD9WyJkI7M3bX-YKi-D-4" target="-gD9WyJkI7M3bX-YKi-D-5">
          <mxGeometry relative="1" as="geometry" />
        </mxCell>
        <mxCell id="-gD9WyJkI7M3bX-YKi-D-4" value="&lt;span style=&quot;color: rgb(51, 51, 51); font-family: &amp;quot;Microsoft YaHei&amp;quot;, &amp;quot;Segoe UI&amp;quot;, Roboto, Oxygen, Ubuntu, Cantarell, &amp;quot;Fira Sans&amp;quot;, &amp;quot;Droid Sans&amp;quot;, &amp;quot;Helvetica Neue&amp;quot;, sans-serif; font-size: 14.4px; white-space-collapse: preserve-breaks; background-color: rgb(255, 255, 255);&quot;&gt;调度员/管理员&lt;/span&gt;" style="rounded=1;whiteSpace=wrap;html=1;" vertex="1" parent="1">
          <mxGeometry x="204" y="180" width="120" height="60" as="geometry" />
        </mxCell>
        <mxCell id="-gD9WyJkI7M3bX-YKi-D-23" value="" style="edgeStyle=orthogonalEdgeStyle;rounded=0;orthogonalLoop=1;jettySize=auto;html=1;" edge="1" parent="1" source="-gD9WyJkI7M3bX-YKi-D-5" target="-gD9WyJkI7M3bX-YKi-D-6">
          <mxGeometry relative="1" as="geometry" />
        </mxCell>
        <mxCell id="-gD9WyJkI7M3bX-YKi-D-5" value="&lt;span style=&quot;color: rgb(51, 51, 51); font-family: &amp;quot;Microsoft YaHei&amp;quot;, &amp;quot;Segoe UI&amp;quot;, Roboto, Oxygen, Ubuntu, Cantarell, &amp;quot;Fira Sans&amp;quot;, &amp;quot;Droid Sans&amp;quot;, &amp;quot;Helvetica Neue&amp;quot;, sans-serif; font-size: 14.4px; white-space-collapse: preserve-breaks; background-color: rgb(255, 255, 255);&quot;&gt;Web浏览器&lt;/span&gt;" style="rounded=1;whiteSpace=wrap;html=1;" vertex="1" parent="1">
          <mxGeometry x="344" y="180" width="120" height="60" as="geometry" />
        </mxCell>
        <mxCell id="-gD9WyJkI7M3bX-YKi-D-6" value="&lt;div&gt;可视化交互界面&lt;/div&gt;&lt;div&gt;(GIS, 甘特图, 表格)&lt;/div&gt;" style="rounded=1;whiteSpace=wrap;html=1;" vertex="1" parent="1">
          <mxGeometry x="494" y="180" width="120" height="60" as="geometry" />
        </mxCell>
        <mxCell id="-gD9WyJkI7M3bX-YKi-D-7" value="" style="rounded=1;whiteSpace=wrap;html=1;dashed=1;" vertex="1" parent="1">
          <mxGeometry x="194" y="280" width="440" height="170" as="geometry" />
        </mxCell>
        <mxCell id="-gD9WyJkI7M3bX-YKi-D-8" value="&lt;span style=&quot;color: rgb(51, 51, 51); font-family: &amp;quot;Microsoft YaHei&amp;quot;, &amp;quot;Segoe UI&amp;quot;, Roboto, Oxygen, Ubuntu, Cantarell, &amp;quot;Fira Sans&amp;quot;, &amp;quot;Droid Sans&amp;quot;, &amp;quot;Helvetica Neue&amp;quot;, sans-serif; font-size: 17.6px; font-weight: 700; text-align: start; background-color: rgb(249, 249, 249);&quot;&gt;应用层 (Application Layer)&lt;/span&gt;" style="text;html=1;align=center;verticalAlign=middle;whiteSpace=wrap;rounded=0;" vertex="1" parent="1">
          <mxGeometry x="194" y="280" width="240" height="50" as="geometry" />
        </mxCell>
        <mxCell id="-gD9WyJkI7M3bX-YKi-D-26" style="edgeStyle=orthogonalEdgeStyle;rounded=0;orthogonalLoop=1;jettySize=auto;html=1;entryX=0;entryY=0.5;entryDx=0;entryDy=0;" edge="1" parent="1" source="-gD9WyJkI7M3bX-YKi-D-9" target="-gD9WyJkI7M3bX-YKi-D-10">
          <mxGeometry relative="1" as="geometry" />
        </mxCell>
        <mxCell id="-gD9WyJkI7M3bX-YKi-D-27" style="edgeStyle=orthogonalEdgeStyle;rounded=0;orthogonalLoop=1;jettySize=auto;html=1;exitX=0.5;exitY=1;exitDx=0;exitDy=0;" edge="1" parent="1" source="-gD9WyJkI7M3bX-YKi-D-9" target="-gD9WyJkI7M3bX-YKi-D-11">
          <mxGeometry relative="1" as="geometry" />
        </mxCell>
        <mxCell id="-gD9WyJkI7M3bX-YKi-D-9" value="&lt;span style=&quot;color: rgb(51, 51, 51); font-family: &amp;quot;Microsoft YaHei&amp;quot;, &amp;quot;Segoe UI&amp;quot;, Roboto, Oxygen, Ubuntu, Cantarell, &amp;quot;Fira Sans&amp;quot;, &amp;quot;Droid Sans&amp;quot;, &amp;quot;Helvetica Neue&amp;quot;, sans-serif; font-size: 14.4px; white-space-collapse: preserve-breaks; background-color: rgb(255, 255, 255);&quot;&gt;Web服务器/应用网关&lt;/span&gt;" style="rounded=1;whiteSpace=wrap;html=1;" vertex="1" parent="1">
          <mxGeometry x="204" y="330" width="120" height="60" as="geometry" />
        </mxCell>
        <mxCell id="-gD9WyJkI7M3bX-YKi-D-10" value="&lt;span style=&quot;color: rgb(51, 51, 51); font-family: &amp;quot;Microsoft YaHei&amp;quot;, &amp;quot;Segoe UI&amp;quot;, Roboto, Oxygen, Ubuntu, Cantarell, &amp;quot;Fira Sans&amp;quot;, &amp;quot;Droid Sans&amp;quot;, &amp;quot;Helvetica Neue&amp;quot;, sans-serif; font-size: 14.4px; white-space-collapse: preserve-breaks; background-color: rgb(255, 255, 255);&quot;&gt;用户与权限管理&lt;/span&gt;&lt;br style=&quot;color: rgb(51, 51, 51); font-family: &amp;quot;Microsoft YaHei&amp;quot;, &amp;quot;Segoe UI&amp;quot;, Roboto, Oxygen, Ubuntu, Cantarell, &amp;quot;Fira Sans&amp;quot;, &amp;quot;Droid Sans&amp;quot;, &amp;quot;Helvetica Neue&amp;quot;, sans-serif; font-size: 14.4px; white-space-collapse: preserve-breaks;&quot;&gt;&lt;span style=&quot;color: rgb(51, 51, 51); font-family: &amp;quot;Microsoft YaHei&amp;quot;, &amp;quot;Segoe UI&amp;quot;, Roboto, Oxygen, Ubuntu, Cantarell, &amp;quot;Fira Sans&amp;quot;, &amp;quot;Droid Sans&amp;quot;, &amp;quot;Helvetica Neue&amp;quot;, sans-serif; font-size: 14.4px; white-space-collapse: preserve-breaks; background-color: rgb(255, 255, 255);&quot;&gt;任务与资源管理&lt;/span&gt;" style="rounded=1;whiteSpace=wrap;html=1;" vertex="1" parent="1">
          <mxGeometry x="494" y="330" width="120" height="60" as="geometry" />
        </mxCell>
        <mxCell id="-gD9WyJkI7M3bX-YKi-D-11" value="&lt;span style=&quot;color: rgb(51, 51, 51); font-family: &amp;quot;Microsoft YaHei&amp;quot;, &amp;quot;Segoe UI&amp;quot;, Roboto, Oxygen, Ubuntu, Cantarell, &amp;quot;Fira Sans&amp;quot;, &amp;quot;Droid Sans&amp;quot;, &amp;quot;Helvetica Neue&amp;quot;, sans-serif; font-size: 14.4px; white-space-collapse: preserve-breaks;&quot;&gt;智能调度核心引擎&lt;/span&gt;" style="rounded=1;whiteSpace=wrap;html=1;fillColor=#f8cecc;strokeColor=#b85450;labelBackgroundColor=none;" vertex="1" parent="1">
          <mxGeometry x="204" y="410" width="120" height="30" as="geometry" />
        </mxCell>
        <mxCell id="-gD9WyJkI7M3bX-YKi-D-31" value="" style="edgeStyle=orthogonalEdgeStyle;rounded=0;orthogonalLoop=1;jettySize=auto;html=1;" edge="1" parent="1" source="-gD9WyJkI7M3bX-YKi-D-12" target="-gD9WyJkI7M3bX-YKi-D-19">
          <mxGeometry relative="1" as="geometry" />
        </mxCell>
        <mxCell id="-gD9WyJkI7M3bX-YKi-D-32" value="读/写" style="edgeLabel;html=1;align=center;verticalAlign=middle;resizable=0;points=[];fontSize=12;" vertex="1" connectable="0" parent="-gD9WyJkI7M3bX-YKi-D-31">
          <mxGeometry x="-0.6364" y="2" relative="1" as="geometry">
            <mxPoint as="offset" />
          </mxGeometry>
        </mxCell>
        <mxCell id="-gD9WyJkI7M3bX-YKi-D-12" value="" style="rounded=1;whiteSpace=wrap;html=1;dashed=1;" vertex="1" parent="1">
          <mxGeometry x="194" y="470" width="440" height="130" as="geometry" />
        </mxCell>
        <mxCell id="-gD9WyJkI7M3bX-YKi-D-13" value="&lt;span style=&quot;color: rgb(51, 51, 51); font-family: &amp;quot;Microsoft YaHei&amp;quot;, &amp;quot;Segoe UI&amp;quot;, Roboto, Oxygen, Ubuntu, Cantarell, &amp;quot;Fira Sans&amp;quot;, &amp;quot;Droid Sans&amp;quot;, &amp;quot;Helvetica Neue&amp;quot;, sans-serif; font-size: 17.6px; font-weight: 700; text-align: start; background-color: rgb(249, 249, 249);&quot;&gt;核心算法层 (Core Algorithm Layer)&lt;/span&gt;" style="text;html=1;align=center;verticalAlign=middle;whiteSpace=wrap;rounded=0;" vertex="1" parent="1">
          <mxGeometry x="194" y="470" width="286" height="50" as="geometry" />
        </mxCell>
        <mxCell id="-gD9WyJkI7M3bX-YKi-D-14" value="&lt;span style=&quot;color: rgb(51, 51, 51); font-family: &amp;quot;Microsoft YaHei&amp;quot;, &amp;quot;Segoe UI&amp;quot;, Roboto, Oxygen, Ubuntu, Cantarell, &amp;quot;Fira Sans&amp;quot;, &amp;quot;Droid Sans&amp;quot;, &amp;quot;Helvetica Neue&amp;quot;, sans-serif; font-size: 14.4px; white-space-collapse: preserve-breaks;&quot;&gt;WP2: 调度优化算法&lt;/span&gt;" style="rounded=1;whiteSpace=wrap;html=1;labelBackgroundColor=none;fillColor=#e1d5e7;strokeColor=#9673a6;" vertex="1" parent="1">
          <mxGeometry x="204" y="540" width="136" height="40" as="geometry" />
        </mxCell>
        <mxCell id="-gD9WyJkI7M3bX-YKi-D-16" value="&lt;span style=&quot;color: rgb(51, 51, 51); font-family: &amp;quot;Microsoft YaHei&amp;quot;, &amp;quot;Segoe UI&amp;quot;, Roboto, Oxygen, Ubuntu, Cantarell, &amp;quot;Fira Sans&amp;quot;, &amp;quot;Droid Sans&amp;quot;, &amp;quot;Helvetica Neue&amp;quot;, sans-serif; font-size: 14.4px; white-space-collapse: preserve-breaks;&quot;&gt;WP3: 任务-资源匹配&lt;/span&gt;" style="rounded=1;whiteSpace=wrap;html=1;labelBackgroundColor=none;fillColor=#e1d5e7;strokeColor=#9673a6;" vertex="1" parent="1">
          <mxGeometry x="480" y="540" width="134" height="40" as="geometry" />
        </mxCell>
        <mxCell id="-gD9WyJkI7M3bX-YKi-D-17" value="" style="rounded=1;whiteSpace=wrap;html=1;dashed=1;" vertex="1" parent="1">
          <mxGeometry x="194" y="640" width="440" height="100" as="geometry" />
        </mxCell>
        <mxCell id="-gD9WyJkI7M3bX-YKi-D-18" value="&lt;span style=&quot;color: rgb(51, 51, 51); font-family: &amp;quot;Microsoft YaHei&amp;quot;, &amp;quot;Segoe UI&amp;quot;, Roboto, Oxygen, Ubuntu, Cantarell, &amp;quot;Fira Sans&amp;quot;, &amp;quot;Droid Sans&amp;quot;, &amp;quot;Helvetica Neue&amp;quot;, sans-serif; font-size: 17.6px; font-weight: 700; text-align: start; background-color: rgb(249, 249, 249);&quot;&gt;数据与服务层 (Data &amp;amp; Service Layer)&lt;/span&gt;" style="text;html=1;align=center;verticalAlign=middle;whiteSpace=wrap;rounded=0;" vertex="1" parent="1">
          <mxGeometry x="194" y="640" width="306" height="50" as="geometry" />
        </mxCell>
        <mxCell id="-gD9WyJkI7M3bX-YKi-D-19" value="&lt;span style=&quot;color: rgb(51, 51, 51); font-family: &amp;quot;Microsoft YaHei&amp;quot;, &amp;quot;Segoe UI&amp;quot;, Roboto, Oxygen, Ubuntu, Cantarell, &amp;quot;Fira Sans&amp;quot;, &amp;quot;Droid Sans&amp;quot;, &amp;quot;Helvetica Neue&amp;quot;, sans-serif; font-size: 14.4px; white-space-collapse: preserve-breaks; background-color: rgb(255, 255, 255);&quot;&gt;项目数据库&lt;/span&gt;" style="rounded=1;whiteSpace=wrap;html=1;" vertex="1" parent="1">
          <mxGeometry x="344" y="700" width="120" height="30" as="geometry" />
        </mxCell>
        <mxCell id="-gD9WyJkI7M3bX-YKi-D-24" style="edgeStyle=orthogonalEdgeStyle;rounded=0;orthogonalLoop=1;jettySize=auto;html=1;" edge="1" parent="1" source="-gD9WyJkI7M3bX-YKi-D-1">
          <mxGeometry relative="1" as="geometry">
            <mxPoint x="322" y="340" as="targetPoint" />
            <Array as="points">
              <mxPoint x="430" y="340" />
              <mxPoint x="322" y="340" />
            </Array>
          </mxGeometry>
        </mxCell>
        <mxCell id="-gD9WyJkI7M3bX-YKi-D-25" value="API 请求" style="edgeLabel;html=1;align=center;verticalAlign=middle;resizable=0;points=[];fontSize=12;" vertex="1" connectable="0" parent="-gD9WyJkI7M3bX-YKi-D-24">
          <mxGeometry x="0.2766" y="2" relative="1" as="geometry">
            <mxPoint as="offset" />
          </mxGeometry>
        </mxCell>
        <mxCell id="-gD9WyJkI7M3bX-YKi-D-29" style="edgeStyle=orthogonalEdgeStyle;rounded=0;orthogonalLoop=1;jettySize=auto;html=1;entryX=0;entryY=0.5;entryDx=0;entryDy=0;" edge="1" parent="1" source="-gD9WyJkI7M3bX-YKi-D-11" target="-gD9WyJkI7M3bX-YKi-D-16">
          <mxGeometry relative="1" as="geometry">
            <Array as="points">
              <mxPoint x="410" y="425" />
              <mxPoint x="410" y="560" />
            </Array>
          </mxGeometry>
        </mxCell>
        <mxCell id="-gD9WyJkI7M3bX-YKi-D-28" style="edgeStyle=orthogonalEdgeStyle;rounded=0;orthogonalLoop=1;jettySize=auto;html=1;entryX=1;entryY=0.5;entryDx=0;entryDy=0;" edge="1" parent="1" source="-gD9WyJkI7M3bX-YKi-D-11" target="-gD9WyJkI7M3bX-YKi-D-14">
          <mxGeometry relative="1" as="geometry">
            <Array as="points">
              <mxPoint x="410" y="425" />
              <mxPoint x="410" y="560" />
            </Array>
          </mxGeometry>
        </mxCell>
        <mxCell id="-gD9WyJkI7M3bX-YKi-D-30" value="调用" style="edgeLabel;html=1;align=center;verticalAlign=middle;resizable=0;points=[];fontSize=12;" vertex="1" connectable="0" parent="-gD9WyJkI7M3bX-YKi-D-28">
          <mxGeometry x="-0.5258" y="-1" relative="1" as="geometry">
            <mxPoint as="offset" />
          </mxGeometry>
        </mxCell>
      </root>
    </mxGraphModel>
  </diagram>
</mxfile>
